Jack Reacher 2012 720p BrRip Dual Audio[English-Hindi] x264 the.HH 
http://www.imdb.com/title/tt0790724/
General
Format                                   : MPEG-4
File size                                : 1.22 GiB
Duration                                 : 2h 10mn
Overall bit rate mode                    : Variable
Overall bit rate                         : 1 340 Kbps

Video
ID                                       : 1
Format                                   : AVC
Format/Info                              : Advanced Video Codec
Format profile                           : High@L4.0
Format settings, CABAC                   : Yes
Format settings, ReFrames                : 12 frames
Codec ID                                 : avc1
Codec ID/Info                            : Advanced Video Coding
Duration                                 : 2h 10mn
Bit rate                                 : 1 112 Kbps
Width                                    : 1 280 pixels
Height                                   : 544 pixels
Display aspect ratio                     : 2.35:1
Frame rate mode                          : Constant
Frame rate                               : 23.976 fps
Bit depth                                : 8 bits
Stream size                              : 1.01 GiB (83%)
Title                                    : JACK REACHER the.HH

Audio #1
ID                                       : 2
Format                                   : AAC
Format/Info                              : Advanced Audio Codec
Format profile                           : LC
Codec ID                                 : 40
Duration                                 : 2h 10mn
Bit rate                                 : 96.0 Kbps
Channel(s)                               : 2 channels
Channel positions                        : Front: L R
Stream size                              : 89.4 MiB (7%)
Title                                    : JACK REACHER the.HH eng
Language                                 : English


Audio #2
ID                                       : 3
Format                                   : AAC
Format/Info                              : Advanced Audio Codec
Format profile                           : LC
Duration                                 : 2h 10mn
Bit rate                                 : 128 Kbps
Channel(s)                               : 2 channels
Channel positions                        : Front: L R
Stream size                              : 119 MiB (10%)
Title                                    : JACK REACHER the.HH hindi
Language                                 : Hindi

SREENS
[img]http://cdn.piczend.com/images/Siquft31/1369199635_1.png[/img]
[img]http://cdn.piczend.com/images/O8oggkmy/1369199614_2.png[/img]
[img]http://cdn.piczend.com/images/3kqfrlJq/1369199651_3.png[/img]

Initial Seeding would be slow.
Thanks.